# File created by Blade
# Date/Time:  Mon Sep 22 17:23:16 2014
# Frame Rate: 120.000 fps
#------------------------------------------------------
:FULLY-SPECIFIED
:DEGREES
1353
root 4.686362 38.400380 -0.098667 -20.180893 24.325614 -20.857101
RightUpLeg -54.173594 4.541448 -26.787219
RightLeg 101.436207 -0.000000 -0.000000
RightFoot 13.700055 -21.149105 5.939023
RightToeBase 2.565191 -0.000000 -0.000000
LeftUpLeg 12.036499 -14.584369 9.465290
LeftLeg 13.065855 -0.000000 -0.000000
LeftFoot -13.553288 6.644548 -11.712645
LeftToeBase 1.743926 -0.000000 -0.000000
Spine 12.986619 -25.066735 13.193684
RightShoulder 1.871977 -29.283550 -3.545703
RightArm 18.485366 -29.407448 59.900295
RightForeArm -180.373864 -0.000000 44.196752
RightHand 96.972459 0.000000 -165.801436
RightHandThumb1 -24.326973 -0.000000 -32.862282
LeftShoulder -13.179263 30.923008 6.063735
LeftArm 81.141565 -4.192471 -52.376552
LeftForeArm 47.329099 -0.000000 70.858860
LeftHand -23.910569 -0.000000 -8.144081
LeftHandThumb1 -26.253704 0.000000 33.147579
Head 8.882182 -3.963339 13.287552
1354
root 4.696739 38.383837 -0.112990 -20.171904 24.298093 -20.607218
RightUpLeg -54.428789 4.241685 -26.762179
RightLeg 101.856165 -0.000000 -0.000000
RightFoot 13.801568 -20.932087 5.836418
RightToeBase 2.406145 -0.000000 -0.000000
LeftUpLeg 12.199345 -14.474393 9.214396
LeftLeg 12.953274 -0.000000 -0.000000
LeftFoot -13.523927 6.610652 -11.662797
LeftToeBase 1.775681 -0.000000 -0.000000
Spine 13.315707 -25.036982 12.795564
RightShoulder 1.861301 -29.351516 -3.524930
RightArm 18.573720 -29.463016 60.018314
RightForeArm -180.294308 -0.000000 44.406460
RightHand 97.057300 0.000000 -165.599302
RightHandThumb1 -24.326973 -0.000000 -32.862282
LeftShoulder -13.114071 30.844993 6.188729
LeftArm 81.148607 -4.318415 -52.431161
LeftForeArm 47.332058 -0.000000 70.888279
LeftHand -23.986315 -0.000000 -8.156397
LeftHandThumb1 -26.253704 0.000000 33.147579
Head 8.703278 -3.921374 13.458868
1355
root 4.709625 38.364868 -0.128404 -20.160786 24.238558 -20.321220
RightUpLeg -54.698175 3.981098 -26.772256
RightLeg 102.236934 -0.000000 -0.000000
RightFoot 13.859020 -20.741970 5.809975
RightToeBase 2.305772 -0.000000 -0.000000
LeftUpLeg 12.378651 -14.320565 8.931004
LeftLeg 12.855716 -0.000000 -0.000000
LeftFoot -13.477372 6.603861 -11.568070
LeftToeBase 1.636942 -0.000000 -0.000000
Spine 13.665327 -24.963490 12.376551
RightShoulder 1.860222 -29.377514 -3.515133
RightArm 18.626671 -29.551345 60.128153
RightForeArm -180.205710 -0.000000 44.593179
RightHand 97.081397 -0.000000 -165.712273
RightHandThumb1 -24.326973 -0.000000 -32.862282
LeftShoulder -13.005081 30.746423 6.318146
LeftArm 81.104198 -4.451051 -52.500985
LeftForeArm 47.360576 -0.000000 70.979257
LeftHand -23.842150 -0.000000 -8.205728
LeftHandThumb1 -26.253704 0.000000 33.147579
Head 8.525427 -3.880952 13.590875
1356
root 4.724032 38.343939 -0.141633 -20.152304 24.151685 -20.019282
RightUpLeg -54.979811 3.726907 -26.780149
RightLeg 102.573301 -0.000000 -0.000000
RightFoot 13.878470 -20.676987 5.758422
RightToeBase 2.436908 -0.000000 -0.000000
LeftUpLeg 12.583190 -14.133661 8.638161
LeftLeg 12.744503 -0.000000 -0.000000
LeftFoot -13.490775 6.622459 -11.406647
LeftToeBase 1.739582 -0.000000 -0.000000
Spine 14.026010 -24.876895 11.953659
RightShoulder 1.868778 -29.398989 -3.527051
RightArm 18.655749 -29.680917 60.248322
RightForeArm -180.061584 -0.000000 44.783020
RightHand 97.201085 -0.000000 -165.729341
RightHandThumb1 -24.326973 -0.000000 -32.862282
LeftShoulder -12.925550 30.591530 6.432371
LeftArm 81.019399 -4.544358 -52.564519
LeftForeArm 47.360437 -0.000000 71.060940
LeftHand -24.025308 -0.000000 -8.211497
LeftHandThumb1 -26.253704 0.000000 33.147579
Head 8.354289 -3.825086 13.654078
1357
root 4.748113 38.323415 -0.160136 -20.143429 24.124671 -19.706224
RightUpLeg -55.206259 3.404466 -26.828622
RightLeg 102.836396 -0.000000 -0.000000
RightFoot 13.925227 -20.646762 5.676939
RightToeBase 2.004293 -0.000000 -0.000000
LeftUpLeg 12.782530 -14.116233 8.260206
LeftLeg 12.643767 -0.000000 -0.000000
LeftFoot -13.486059 6.712109 -11.415549
LeftToeBase 1.775387 -0.000000 -0.000000
Spine 14.372159 -24.874416 11.529263
RightShoulder 1.918169 -29.404786 -3.573486
RightArm 18.686392 -29.810826 60.327214
RightForeArm -179.949508 -0.000000 44.947513
RightHand 97.277146 0.000000 -165.916182
RightHandThumb1 -24.326973 -0.000000 -32.862282
LeftShoulder -12.856497 30.452722 6.470236
LeftArm 80.958977 -4.653393 -52.711610
LeftForeArm 47.488778 -0.000000 71.126855
LeftHand -24.086938 -0.000000 -8.330057
LeftHandThumb1 -26.253704 0.000000 33.147579
Head 8.224945 -3.742353 13.638216
1358
root 4.763162 38.303819 -0.174205 -20.130517 24.037930 -19.443649
RightUpLeg -55.487446 3.122044 -26.784016
RightLeg 103.067879 -0.000000 -0.000000
RightFoot 13.950271 -20.636705 5.548079
RightToeBase 1.990709 -0.000000 -0.000000
LeftUpLeg 12.919118 -13.910238 8.023509
LeftLeg 12.611431 -0.000000 -0.000000
LeftFoot -13.497633 6.635668 -11.395932
LeftToeBase 1.818403 -0.000000 -0.000000
Spine 14.691022 -24.847918 11.166617
RightShoulder 1.978244 -29.390786 -3.626265
RightArm 18.710895 -29.985943 60.403089
RightForeArm -179.862021 -0.000000 45.058126
RightHand 97.342163 -0.000000 -165.851984
RightHandThumb1 -24.326973 -0.000000 -32.862282
LeftShoulder -12.842705 30.392096 6.464859
LeftArm 80.934871 -4.794894 -52.826606
LeftForeArm 47.608897 -0.000000 71.224558
LeftHand -23.991733 0.000000 -8.403723
LeftHandThumb1 -26.253704 0.000000 33.147579
Head 8.106125 -3.658056 13.613661
1359
root 4.782463 38.283701 -0.190366 -20.060965 23.945400 -19.127236
RightUpLeg -55.816743 2.792812 -26.767799
RightLeg 103.237008 -0.000000 -0.000000
RightFoot 13.880874 -20.704160 5.537363
RightToeBase 2.062336 -0.000000 -0.000000
LeftUpLeg 13.029830 -13.708342 7.729349
LeftLeg 12.568006 -0.000000 -0.000000
LeftFoot -13.480876 6.594203 -11.383807
LeftToeBase 1.868174 -0.000000 -0.000000
Spine 14.937488 -24.749515 10.787803
RightShoulder 1.977384 -29.450535 -3.632775
RightArm 18.769861 -30.096940 60.447392
RightForeArm -179.707943 0.000000 45.150469
RightHand 97.362245 -0.000000 -166.025565
RightHandThumb1 -24.326973 -0.000000 -32.862282
LeftShoulder -12.766170 30.352645 6.463768
LeftArm 80.923660 -4.923800 -52.963275
LeftForeArm 47.720079 0.000000 71.310308
LeftHand -24.124403 -0.000000 -8.429662
LeftHandThumb1 -26.253704 0.000000 33.147579
Head 8.039275 -3.604958 13.574065
1360
root 4.800428 38.265836 -0.206805 -19.983476 23.848726 -18.832934
RightUpLeg -56.154229 2.433831 -26.705343
RightLeg 103.371925 -0.000000 -0.000000
RightFoot 13.767598 -20.710757 5.577634
RightToeBase 2.066017 -0.000000 -0.000000
LeftUpLeg 13.150497 -13.601730 7.429000
LeftLeg 12.479839 -0.000000 -0.000000
LeftFoot -13.470171 6.662910 -11.381262
LeftToeBase 1.855244 -0.000000 -0.000000
Spine 15.160362 -24.669259 10.438722
RightShoulder 1.968215 -29.509421 -3.620431
RightArm 18.825270 -30.197009 60.450185
RightForeArm -179.589666 -0.000000 45.243911
RightHand 97.456752 -0.000000 -166.221040
RightHandThumb1 -24.326973 -0.000000 -32.862282
LeftShoulder -12.733758 30.289585 6.446514
LeftArm 80.863583 -5.003618 -53.100778
LeftForeArm 47.858273 -0.000000 71.421400
LeftHand -24.211580 -0.000000 -8.430419
LeftHandThumb1 -26.253704 0.000000 33.147579
Head 7.982283 -3.528167 13.520523
1361
root 4.817512 38.250177 -0.225108 -19.905770 23.767551 -18.581470
RightUpLeg -56.486653 2.007287 -26.566587
RightLeg 103.448282 -0.000000 -0.000000
RightFoot 13.660874 -20.730599 5.527115
RightToeBase 1.826744 -0.000000 -0.000000
LeftUpLeg 13.195647 -13.386638 7.209018
LeftLeg 12.481262 -0.000000 -0.000000
LeftFoot -13.390382 6.571028 -11.408103
LeftToeBase 1.543281 -0.000000 -0.000000
Spine 15.360076 -24.636890 10.137931
RightShoulder 1.979263 -29.511301 -3.616868
RightArm 18.840853 -30.318307 60.458370
RightForeArm -179.539497 -0.000000 45.287009
RightHand 97.474425 -0.000000 -166.237819
RightHandThumb1 -24.326973 -0.000000 -32.862282
LeftShoulder -12.715412 30.225372 6.403688
LeftArm 80.807352 -5.050724 -53.331042
LeftForeArm 48.079463 0.000000 71.547049
LeftHand -24.302987 -0.000000 -8.446254
LeftHandThumb1 -26.253704 0.000000 33.147579
Head 7.925161 -3.428840 13.447323
1362
root 4.832821 38.237288 -0.242301 -19.783717 23.658869 -18.348012
RightUpLeg -56.881894 1.557311 -26.352007
RightLeg 103.484325 -0.000000 -0.000000
RightFoot 13.365532 -20.783905 5.781623
RightToeBase 2.309716 -0.000000 -0.000000
LeftUpLeg 13.190807 -13.107454 7.045887
LeftLeg 12.451879 -0.000000 -0.000000
LeftFoot -13.437834 6.472695 -11.585831
LeftToeBase 1.990740 -0.000000 -0.000000
Spine 15.470286 -24.596814 9.895349
RightShoulder 2.006918 -29.529847 -3.619830
RightArm 18.807050 -30.361876 60.502437
RightForeArm -179.353104 -0.000000 45.325998
RightHand 97.542549 0.000000 -166.331434
RightHandThumb1 -24.326973 -0.000000 -32.862282
LeftShoulder -12.727515 30.245560 6.299283
LeftArm 80.780032 -5.124751 -53.537723
LeftForeArm 48.307152 -0.000000 71.676148
LeftHand -24.197424 -0.000000 -8.453314
LeftHandThumb1 -26.253704 0.000000 33.147579
Head 7.926226 -3.327908 13.339813
1363
root 4.847449 38.225730 -0.258931 -19.674782 23.544776 -18.100147
RightUpLeg -57.265709 1.067285 -26.088855
RightLeg 103.474449 -0.000000 -0.000000
RightFoot 13.127017 -20.950577 6.016019
RightToeBase 2.252934 -0.000000 -0.000000
LeftUpLeg 13.228563 -12.832477 6.855560
LeftLeg 12.388414 -0.000000 -0.000000
LeftFoot -13.397536 6.428571 -11.579650
LeftToeBase 2.151503 -0.000000 -0.000000
Spine 15.617717 -24.557683 9.605442
RightShoulder 2.025978 -29.533589 -3.594816
RightArm 18.779913 -30.413135 60.506551
RightForeArm -179.262522 -0.000000 45.367943
RightHand 97.564357 -0.000000 -166.498038
RightHandThumb1 -24.326973 -0.000000 -32.862282
LeftShoulder -12.749422 30.254431 6.216161
LeftArm 80.738468 -5.200868 -53.756995
LeftForeArm 48.534329 -0.000000 71.812916
LeftHand -24.304984 -0.000000 -8.517759
LeftHandThumb1 -26.253704 0.000000 33.147579
Head 7.918659 -3.179334 13.292394
